<svg width="128" height="128" viewBox="0 0 128 128" fill="none" xmlns="http://www.w3.org/2000/svg">
<path d="M63.9969 0C98.7689 0 127 28.2311 127 63.0031C127 97.7689 98.7689 126 63.9969 126C29.2311 126 1 97.7689 1 63.0031C1 28.2311 29.2311 0 63.9969 0V0ZM63.9969 9.45236C34.4425 9.45236 10.4524 33.4488 10.4524 63.0031C10.4524 92.5575 34.4425 116.548 63.9969 116.548C93.5512 116.548 117.548 92.5575 117.548 63.0031C117.548 33.4488 93.5512 9.45236 63.9969 9.45236V9.45236ZM59.2896 58.2896H37.2341C34.6252 58.2896 32.5079 60.4069 32.5079 63.0158C32.5079 65.6246 34.6252 67.7419 37.2341 67.7419H59.2896V89.7974C59.2896 92.4063 61.4069 94.5236 64.0158 94.5236C66.6246 94.5236 68.7419 92.4063 68.7419 89.7974V67.7419H90.7974C93.4063 67.7419 95.5236 65.6246 95.5236 63.0158C95.5236 60.4069 93.4063 58.2896 90.7974 58.2896H68.7419V36.2341C68.7419 33.6252 66.6246 31.5079 64.0158 31.5079C61.4069 31.5079 59.2896 33.6252 59.2896 36.2341V58.2896Z" fill="#FF4949"/>
</svg>
